<svg xmlns="http://www.w3.org/2000/svg" width="128" height="128.2" viewBox="0 0 128 128.2">
  <title>icon</title>
  <rect width="128" height="128" style="fill: #106f99"/>
  <polygon points="0 128 94.4 128.2 107 115.6 107.6 38 84 13 24 13 0 37 0 128" style="fill: #045572"/>
  <g>
    <path d="M18.7,64.5V26.8a19,19,0,0,1,6.7-15A18.4,18.4,0,0,1,37.8,7H76.1a12.6,12.6,0,0,1,9.3,4L108,33.6a13.6,13.6,0,0,1,4,9.9v58.8c-.1,8.1-3.9,14.1-11.1,17.8A16.5,16.5,0,0,1,93,122H37.7c-7.9-.1-13.6-4.1-17.1-11.1a18.3,18.3,0,0,1-1.9-8.6V64.5Zm6.4,0v37.9a12.6,12.6,0,0,0,2.3,7.5,12.1,12.1,0,0,0,9.4,5.5c2.2.2,4.4.2,6.6.2H92a12.4,12.4,0,0,0,6.6-1.6,12.9,12.9,0,0,0,6.9-12.2V43.7a8.3,8.3,0,0,0-2.4-6L81.5,16.2a8.7,8.7,0,0,0-6.6-2.8H38.4a14,14,0,0,0-4.1.6,13,13,0,0,0-9.2,12.3V64.5Z" style="fill: #fff"/>
    <path d="M65.3,90.8H90.1a3.2,3.2,0,0,1,3.2,2.1,3.3,3.3,0,0,1-3.2,4.4H41a3.8,3.8,0,0,1-2.9-1,3.2,3.2,0,0,1-.7-3.5,3.1,3.1,0,0,1,3-2H65.3Z" style="fill: #fff"/>
    <path d="M82,50.2H75.8a3.3,3.3,0,0,1-3.2-2.6,3.1,3.1,0,0,1,1.8-3.5,3.3,3.3,0,0,1,1.4-.4H88.1a3.4,3.4,0,0,1,3.2,2.4,3.2,3.2,0,0,1-1.7,3.7,2.9,2.9,0,0,1-1.6.4Z" style="fill: #fff"/>
    <path d="M82,69.6c-2.1,0-4.2.1-6.3,0a3.2,3.2,0,0,1-1.6-5.9,3.4,3.4,0,0,1,1.7-.5H88.2a3,3,0,0,1,3.1,2.7,3.2,3.2,0,0,1-2.1,3.6H82Z" style="fill: #fff"/>
    <path d="M36.3,69.8V65.7l9.4-12.4H36.9V48.5H52.5v4.1L43,65h9.5v4.8Z" style="fill: #fff"/>
    <path d="M63.9,69.8a5.8,5.8,0,0,1-6.2-6.1V57.4l-2.2,1.4V54.4L57.7,53V40.7H63v9.1l2.5-1.5v4.4L63,54.3v9.1c0,1.2.5,1.9,1.9,1.9h2v4.5Z" style="fill: #fff"/>
  </g>
</svg>
